<svg xmlns="http://www.w3.org/2000/svg" xmlns:xlink="http://www.w3.org/1999/xlink" width="500" zoomAndPan="magnify" viewBox="0 0 375 374.999991" height="500" preserveAspectRatio="xMidYMid meet" version="1.0"><defs><g/><clipPath id="c3e99ade2b"><path d="M 138 145 L 240 145 L 240 230.90625 L 138 230.90625 Z M 138 145 " clip-rule="nonzero"/></clipPath><clipPath id="95321c2ec9"><path d="M 106 104 L 258.992188 104 L 258.992188 206 L 106 206 Z M 106 104 " clip-rule="nonzero"/></clipPath><clipPath id="b7e0cfba05"><path d="M 125 94.40625 L 199 94.40625 L 199 184 L 125 184 Z M 125 94.40625 " clip-rule="nonzero"/></clipPath></defs><g clip-path="url(#c3e99ade2b)"><path fill="#51ade5" d="M 173.769531 203.964844 C 178.65625 203.320312 183.3125 198.960938 183.398438 198.878906 C 183.386719 198.910156 183.554688 199.222656 187.949219 202.226562 C 193.230469 205.835938 198.027344 200.449219 198.027344 200.449219 C 205.214844 204.917969 210.152344 202.804688 210.152344 202.804688 C 205.78125 205.640625 199.558594 203.765625 199.558594 203.765625 C 190.03125 209.128906 183.585938 202.710938 183.585938 202.710938 C 179.585938 204.617188 173.769531 203.964844 173.769531 203.964844 Z M 138.152344 199.742188 C 141.195312 206.382812 145.5625 212.289062 150.914062 217.125 C 166.285156 214.664062 172.222656 207.675781 172.222656 207.675781 C 172.222656 207.675781 176.675781 215.414062 187.199219 215.339844 C 197.726562 215.265625 200.046875 207.675781 200.046875 207.675781 C 200.046875 207.675781 203.796875 212.578125 213.515625 214.960938 C 219.757812 216.492188 227.078125 212.613281 229.214844 209.664062 L 229.214844 209.660156 C 225.480469 208.742188 222.859375 207.765625 222.859375 207.765625 C 215.367188 212.265625 207.488281 208.996094 207.488281 208.996094 C 215.390625 210.414062 221.960938 200.5625 221.960938 200.5625 C 221.960938 200.5625 224.8125 204.195312 231.148438 206.929688 C 236.710938 198.515625 239.953125 188.429688 239.953125 177.585938 C 239.953125 165.617188 236.003906 154.566406 229.335938 145.667969 C 228.421875 146.316406 227.363281 147.179688 226.027344 148.617188 C 215.117188 160.382812 199.519531 171.984375 187.351562 179.585938 C 170.703125 189.988281 153.238281 196.734375 138.152344 199.742188 Z M 152.058594 218.128906 C 161.367188 226.070312 173.445312 230.867188 186.644531 230.867188 C 198.203125 230.867188 208.898438 227.191406 217.632812 220.945312 C 208.320312 221.171875 201.8125 215.875 201.8125 215.875 C 187.226562 226.332031 172.222656 215.414062 172.222656 215.414062 C 161.84375 218.308594 155.492188 218.46875 152.058594 218.128906 " fill-opacity="1" fill-rule="nonzero"/></g><path fill="#3871c1" d="M 187.351562 179.585938 C 199.519531 171.984375 215.117188 160.382812 226.027344 148.617188 C 227.363281 147.179688 228.421875 146.316406 229.335938 145.667969 C 229.589844 146.007812 229.839844 146.355469 230.085938 146.699219 C 223.597656 156.683594 211.046875 173.753906 193.273438 187.789062 C 177.511719 200.234375 161.277344 209.164062 147.472656 213.722656 C 143.675781 209.609375 140.515625 204.898438 138.152344 199.742188 C 153.238281 196.734375 170.703125 189.988281 187.351562 179.585938 " fill-opacity="1" fill-rule="nonzero"/><path fill="#f68712" d="M 224.058594 139.636719 C 218.382812 145.832031 207.804688 156.117188 192.945312 165.335938 C 180.28125 173.195312 167.070312 179.105469 155.554688 182.253906 C 153.125 182.917969 150.773438 183.460938 148.515625 183.871094 C 145.113281 184.492188 141.929688 184.8125 139.039062 184.8125 C 137.078125 184.8125 135.3125 184.664062 133.769531 184.375 C 133.484375 182.152344 133.339844 179.886719 133.339844 177.585938 C 133.339844 158.226562 143.671875 141.277344 159.121094 131.949219 C 163.878906 129.074219 169.121094 126.925781 174.699219 125.648438 C 174.726562 125.640625 174.753906 125.636719 174.785156 125.628906 C 176.234375 125.300781 177.707031 125.03125 179.199219 124.820312 C 179.40625 124.792969 179.613281 124.765625 179.824219 124.738281 C 181.296875 124.550781 182.789062 124.421875 184.300781 124.355469 C 184.398438 124.351562 184.496094 124.347656 184.589844 124.34375 C 185.273438 124.316406 185.957031 124.304688 186.644531 124.304688 C 189.355469 124.304688 192.015625 124.507812 194.617188 124.898438 C 206.011719 126.605469 216.226562 131.917969 224.058594 139.636719 " fill-opacity="1" fill-rule="nonzero"/><g clip-path="url(#95321c2ec9)"><path fill="#2c3892" d="M 252.621094 117.488281 C 256.757812 111.144531 258.996094 105.515625 257.660156 104.605469 C 256.328125 103.699219 251.898438 107.832031 247.5 113.996094 L 230.609375 114.125 L 227.90625 118.089844 L 241.148438 123.882812 C 239.441406 126.691406 237.675781 129.703125 236.132812 132.476562 L 227.5 132.023438 L 226.203125 133.917969 L 233.589844 137.230469 C 233.460938 137.488281 220.144531 155.191406 195.964844 170.199219 C 163.257812 190.492188 130.332031 196.632812 122.414062 183.890625 C 116.921875 175.058594 124.882812 159.480469 141.171875 143.992188 C 115.117188 164.167969 100.742188 186.804688 108.054688 198.566406 C 116.769531 212.585938 153.0625 205.9375 188.980469 183.5 C 218.023438 165.355469 235.972656 138.996094 236.050781 138.90625 L 239.164062 143.222656 L 240.457031 141.324219 L 239.554688 134.808594 C 241.570312 132.359375 243.734375 129.617188 245.730469 127.003906 L 248.679688 136.007812 L 251.382812 132.046875 L 252.621094 117.488281 " fill-opacity="1" fill-rule="nonzero"/></g><g clip-path="url(#b7e0cfba05)"><path fill="#24265d" d="M 185.996094 125.492188 C 187.699219 126.957031 189.765625 127.921875 191.972656 128.347656 C 194.308594 128.796875 196.492188 129.503906 198.894531 130.644531 C 198.894531 130.644531 197.4375 127.890625 194.617188 124.898438 C 190.410156 120.425781 183.164062 115.417969 173.195312 118.238281 C 173.339844 118.144531 173.484375 118.050781 173.636719 117.957031 C 172.917969 117.671875 172.082031 117.4375 171.140625 117.335938 C 171.140625 117.335938 171.636719 117.183594 172.453125 117.175781 C 174 117.160156 175.515625 116.78125 176.867188 116.035156 L 176.914062 116.007812 C 176.101562 115.636719 175.65625 115.015625 174.503906 114.886719 C 174.503906 114.886719 175.167969 114.6875 176.21875 114.738281 C 177.96875 114.816406 179.714844 114.492188 181.289062 113.734375 C 181.378906 113.691406 181.46875 113.648438 181.554688 113.605469 C 180.671875 113.152344 179.542969 112.738281 178.191406 112.589844 C 178.191406 112.589844 179.125 112.28125 180.425781 112.285156 C 183.011719 112.296875 185.574219 111.765625 187.976562 110.800781 C 188.074219 110.761719 188.171875 110.722656 188.261719 110.6875 C 186.152344 110.058594 183.328125 109.421875 181.960938 109.269531 C 181.960938 109.269531 188.6875 108.570312 193.652344 109.0625 C 193.652344 109.0625 176.890625 97.507812 167.429688 118.582031 C 169 113.320312 169.460938 104.160156 161.097656 98.460938 C 157.171875 95.785156 151.789062 94.429688 151.789062 94.429688 C 153.273438 95.894531 160.605469 104.550781 161.253906 105.875 C 161.199219 105.832031 159.398438 104.5 157.28125 103.609375 C 157.3125 103.710938 157.347656 103.8125 157.378906 103.914062 C 157.949219 105.746094 161.414062 109.96875 161.8125 110.773438 C 161.8125 110.773438 160.355469 109.6875 158.511719 108.8125 C 158.945312 111.472656 160.179688 114.320312 160.289062 116.722656 C 151.851562 100.316406 133.421875 105.414062 133.421875 105.414062 C 139.484375 106.058594 147.351562 108.570312 147.351562 108.570312 C 145.679688 108.410156 142.140625 108.46875 139.464844 108.695312 C 139.554688 108.753906 139.652344 108.816406 139.75 108.882812 C 142.398438 110.644531 145.34375 111.921875 148.457031 112.5625 C 150.003906 112.878906 151.03125 113.476562 151.03125 113.476562 C 149.378906 113.316406 147.925781 113.53125 146.753906 113.855469 L 146.894531 113.960938 C 148.664062 115.304688 150.742188 116.175781 152.929688 116.546875 C 154.15625 116.757812 154.867188 117.140625 154.867188 117.140625 C 153.460938 117.007812 152.773438 117.640625 151.707031 117.882812 C 151.753906 117.925781 151.800781 117.964844 151.847656 118.003906 C 152.230469 118.332031 152.632812 118.632812 153.058594 118.902344 C 131.011719 111.777344 125.273438 127.730469 125.273438 127.730469 C 130.226562 124.285156 137.71875 121.066406 137.867188 121.003906 C 136.5 121.976562 133.863281 124.332031 131.992188 126.257812 C 132.007812 126.253906 132.027344 126.25 132.042969 126.25 C 135.371094 125.808594 138.574219 124.738281 141.542969 123.171875 C 142.820312 122.5 143.863281 122.300781 143.863281 122.300781 C 142.511719 123.265625 141.550781 124.375 140.878906 125.386719 C 140.910156 125.386719 140.9375 125.382812 140.96875 125.378906 C 143.222656 125.238281 145.398438 124.53125 147.335938 123.367188 C 148.351562 122.753906 149.117188 122.570312 149.164062 122.5625 C 148.015625 123.382812 147.910156 124.308594 147.261719 125.191406 L 147.308594 125.191406 C 149.175781 125.179688 151.019531 124.722656 152.652344 123.820312 C 153.535156 123.328125 154.171875 123.179688 154.210938 123.171875 C 153.265625 123.84375 152.515625 124.589844 151.917969 125.320312 C 152.796875 125.363281 153.636719 125.421875 154.433594 125.484375 C 142.277344 128.476562 142.347656 142.566406 142.347656 142.566406 C 143.066406 141.058594 143.992188 139.753906 145.058594 138.617188 C 145.582031 135.851562 146.691406 133.691406 146.691406 133.691406 C 146.449219 135.078125 146.976562 138.269531 146.984375 138.261719 C 148.734375 136.730469 149.480469 133.945312 150.382812 131.804688 C 150.617188 131.25 150.78125 130.929688 150.78125 130.929688 C 150.542969 132.28125 150.429688 133.488281 150.402344 134.558594 C 150.414062 134.550781 150.429688 134.542969 150.441406 134.535156 C 152.746094 133.25 154.585938 131.269531 155.640625 128.855469 C 155.820312 128.453125 155.566406 131.007812 155.554688 132.148438 C 158.675781 129.273438 160.601562 130.085938 160.601562 130.085938 C 160.136719 130.632812 159.640625 131.253906 159.121094 131.949219 C 153.484375 139.5 145.277344 155.738281 148.515625 183.871094 C 150.773438 183.460938 153.125 182.917969 155.554688 182.253906 C 152.910156 171.242188 149.761719 148.585938 162.636719 131.761719 C 162.640625 131.886719 163.109375 131.003906 163.523438 130.554688 C 163.601562 130.621094 162.691406 134.433594 162.636719 136.023438 L 162.636719 136.0625 C 163.394531 135.539062 164.179688 135.472656 164.898438 134.527344 C 164.890625 134.566406 164.71875 135.207031 164.175781 136.046875 C 163.140625 137.648438 162.492188 139.464844 162.3125 141.359375 C 162.3125 141.382812 162.308594 141.40625 162.308594 141.429688 C 163.175781 140.890625 164.136719 140.113281 164.984375 139 C 164.972656 139.050781 164.769531 139.90625 164.1875 140.933594 C 162.792969 143.390625 161.808594 146.058594 161.351562 148.847656 C 161.351562 148.863281 161.347656 148.878906 161.347656 148.890625 C 163.015625 147.367188 165.070312 145.207031 165.925781 144.082031 C 165.867188 144.207031 162.960938 150.429688 159.929688 154.511719 C 159.929688 154.511719 173.484375 148.535156 169.023438 131.445312 C 169.667969 134.011719 171.171875 136.277344 173.289062 137.871094 C 173.304688 137.882812 173.320312 137.894531 173.335938 137.90625 C 173.574219 136.964844 173.664062 134.488281 173.707031 133.316406 C 173.707031 133.316406 176.433594 136.609375 177.539062 141.304688 L 177.570312 141.335938 C 177.789062 140.429688 178.078125 137.996094 178.117188 136.882812 C 178.117188 136.882812 180.132812 140.980469 183.445312 149.847656 C 183.445312 149.847656 187.519531 134.585938 175.789062 126.296875 C 177.347656 127.105469 179.082031 127.519531 180.847656 127.507812 L 180.898438 127.503906 C 180.636719 126.898438 179.210938 125.277344 178.992188 124.972656 C 178.992188 124.972656 184.167969 127.507812 186.285156 127.65625 L 186.34375 127.664062 C 186.027344 126.9375 184.542969 124.648438 184.445312 124.507812 C 184.445312 124.507812 185.46875 125.035156 185.996094 125.492188 " fill-opacity="1" fill-rule="nonzero"/></g><g fill="#ffffff" fill-opacity="1"><g transform="translate(139.474504, 231.725923)"><g><path d="M 5.234375 -6.453125 L 5.5625 -6.875 L 7.953125 -5.046875 L 7.625 -4.625 C 7.550781 -4.519531 7.453125 -4.5 7.328125 -4.5625 C 7.222656 -4.613281 7.117188 -4.660156 7.015625 -4.703125 C 6.910156 -4.753906 6.832031 -4.789062 6.78125 -4.8125 C 6.738281 -4.84375 6.710938 -4.863281 6.703125 -4.875 L 4.609375 0.515625 C 4.472656 0.859375 4.367188 1.085938 4.296875 1.203125 C 4.535156 0.992188 4.738281 0.835938 4.90625 0.734375 L 10.28125 -2.875 C 10.351562 -2.90625 10.4375 -2.925781 10.53125 -2.9375 C 10.632812 -2.945312 10.722656 -2.921875 10.796875 -2.859375 L 11.0625 -2.65625 C 11.21875 -2.53125 11.265625 -2.367188 11.203125 -2.171875 L 9.109375 3.96875 C 9.015625 4.238281 8.921875 4.472656 8.828125 4.671875 C 8.859375 4.640625 8.90625 4.59375 8.96875 4.53125 C 9.039062 4.46875 9.09375 4.421875 9.125 4.390625 C 9.25 4.265625 9.332031 4.191406 9.375 4.171875 L 14.046875 0.78125 C 14.035156 0.769531 13.878906 0.59375 13.578125 0.25 C 13.492188 0.15625 13.492188 0.0546875 13.578125 -0.046875 L 13.890625 -0.453125 L 15.796875 1 L 16.203125 1.328125 L 15.890625 1.75 C 15.804688 1.84375 15.703125 1.863281 15.578125 1.8125 L 15.015625 1.546875 L 8.234375 6.328125 L 7.375 5.671875 L 9.703125 -1.046875 C 9.734375 -1.148438 9.789062 -1.285156 9.875 -1.453125 C 9.84375 -1.441406 9.804688 -1.414062 9.765625 -1.375 C 9.734375 -1.34375 9.707031 -1.320312 9.6875 -1.3125 C 9.675781 -1.300781 9.648438 -1.273438 9.609375 -1.234375 C 9.566406 -1.203125 9.539062 -1.1875 9.53125 -1.1875 L 3.640625 2.796875 L 2.78125 2.125 L 5.65625 -5.671875 C 5.445312 -5.921875 5.3125 -6.082031 5.25 -6.15625 C 5.164062 -6.25 5.160156 -6.347656 5.234375 -6.453125 Z M 5.234375 -6.453125 "/></g></g></g><g fill="#ffffff" fill-opacity="1"><g transform="translate(151.754976, 240.578121)"><g><path d="M 0.375 0.203125 L 0.640625 -0.265625 C 0.703125 -0.378906 0.785156 -0.414062 0.890625 -0.375 L 1.578125 -0.15625 L 5.015625 -6.296875 C 4.691406 -6.554688 4.492188 -6.71875 4.421875 -6.78125 C 4.359375 -6.851562 4.359375 -6.945312 4.421875 -7.0625 L 4.671875 -7.5 L 7.25 -6.046875 L 7 -5.609375 C 6.9375 -5.484375 6.847656 -5.441406 6.734375 -5.484375 L 6.046875 -5.734375 L 2.609375 0.40625 C 2.898438 0.65625 3.097656 0.828125 3.203125 0.921875 C 3.265625 0.992188 3.269531 1.082031 3.21875 1.1875 L 2.953125 1.65625 Z M 0.375 0.203125 "/></g></g></g><g fill="#ffffff" fill-opacity="1"><g transform="translate(156.003994, 242.95879)"><g><path d="M 0.5625 -0.171875 L 1.46875 -2.203125 L 2 -1.953125 C 2.132812 -1.890625 2.179688 -1.789062 2.140625 -1.65625 C 2.140625 -1.582031 2.078125 -1.390625 1.953125 -1.078125 L 1.75 -0.5625 C 2.25 -0.09375 2.664062 0.21875 3 0.375 C 3.3125 0.507812 3.609375 0.59375 3.890625 0.625 C 4.117188 0.644531 4.332031 0.625 4.53125 0.5625 C 4.9375 0.414062 5.238281 0.117188 5.4375 -0.328125 C 5.625 -0.753906 5.570312 -1.171875 5.28125 -1.578125 C 5.132812 -1.796875 4.96875 -1.972656 4.78125 -2.109375 C 4.101562 -2.710938 3.703125 -3.082031 3.578125 -3.21875 C 3.398438 -3.414062 3.253906 -3.648438 3.140625 -3.921875 C 2.898438 -4.453125 2.925781 -5.039062 3.21875 -5.6875 C 3.488281 -6.28125 3.929688 -6.695312 4.546875 -6.9375 C 5.203125 -7.175781 5.90625 -7.128906 6.65625 -6.796875 C 7.425781 -6.453125 8.113281 -5.96875 8.71875 -5.34375 L 7.875 -3.484375 L 7.328125 -3.734375 C 7.191406 -3.796875 7.148438 -3.890625 7.203125 -4.015625 C 7.203125 -4.015625 7.210938 -4.050781 7.234375 -4.125 C 7.265625 -4.207031 7.304688 -4.332031 7.359375 -4.5 C 7.421875 -4.675781 7.484375 -4.863281 7.546875 -5.0625 C 7.109375 -5.4375 6.703125 -5.707031 6.328125 -5.875 C 5.847656 -6.09375 5.414062 -6.140625 5.03125 -6.015625 C 4.675781 -5.890625 4.421875 -5.644531 4.265625 -5.28125 C 4.078125 -4.882812 4.140625 -4.484375 4.453125 -4.078125 C 4.585938 -3.867188 4.75 -3.679688 4.9375 -3.515625 C 5.5 -3.003906 5.898438 -2.625 6.140625 -2.375 L 6.109375 -2.375 C 6.765625 -1.65625 6.898438 -0.875 6.515625 -0.03125 C 6.179688 0.707031 5.675781 1.207031 5 1.46875 C 4.3125 1.726562 3.539062 1.671875 2.6875 1.296875 C 2.34375 1.140625 1.988281 0.945312 1.625 0.71875 C 1.375 0.550781 1.109375 0.335938 0.828125 0.078125 Z M 0.5625 -0.171875 "/></g></g></g><g fill="#ffffff" fill-opacity="1"><g transform="translate(162.832852, 246.041208)"><g><path d="M 0.296875 0.09375 L 0.4375 -0.390625 C 0.46875 -0.484375 0.539062 -0.523438 0.65625 -0.515625 L 1.15625 -0.53125 L 6.515625 -7.28125 L 7.671875 -6.9375 L 8.4375 1.625 L 8.890625 1.921875 C 8.984375 1.972656 9.015625 2.046875 8.984375 2.140625 L 8.84375 2.625 L 6.40625 1.90625 L 6.546875 1.421875 C 6.578125 1.328125 6.65625 1.285156 6.78125 1.296875 L 7.28125 1.28125 L 7.140625 -0.59375 L 3.484375 -1.6875 L 2.3125 -0.1875 L 2.765625 0.109375 C 2.847656 0.160156 2.875 0.234375 2.84375 0.328125 L 2.703125 0.8125 Z M 4.0625 -2.4375 L 7.078125 -1.53125 L 6.78125 -5.15625 C 6.75 -5.40625 6.738281 -5.695312 6.75 -6.03125 C 6.550781 -5.695312 6.394531 -5.457031 6.28125 -5.3125 Z M 4.0625 -2.4375 "/></g></g></g><g fill="#ffffff" fill-opacity="1"><g transform="translate(173.227196, 248.971233)"><g><path d="M 1.265625 -6.765625 L 1.546875 -8.703125 L 8.125 -7.734375 L 8.546875 -7.671875 L 8.75 -7.640625 L 8.46875 -5.703125 L 7.859375 -5.796875 C 7.722656 -5.804688 7.648438 -5.859375 7.640625 -5.953125 C 7.617188 -6.085938 7.625 -6.363281 7.65625 -6.78125 L 5.609375 -7.078125 L 4.59375 -0.21875 C 4.625 -0.21875 4.671875 -0.203125 4.734375 -0.171875 C 5.109375 -0.0351562 5.304688 0.03125 5.328125 0.03125 C 5.410156 0.0625 5.441406 0.140625 5.421875 0.265625 L 5.34375 0.78125 L 2.375 0.34375 L 2.453125 -0.171875 C 2.472656 -0.316406 2.554688 -0.382812 2.703125 -0.375 C 2.742188 -0.375 2.835938 -0.378906 2.984375 -0.390625 C 3.140625 -0.398438 3.28125 -0.40625 3.40625 -0.40625 L 4.421875 -7.265625 L 2.34375 -7.578125 C 2.226562 -7.128906 2.148438 -6.859375 2.109375 -6.765625 C 2.078125 -6.679688 1.988281 -6.648438 1.84375 -6.671875 Z M 1.265625 -6.765625 "/></g></g></g><g fill="#ffffff" fill-opacity="1"><g transform="translate(182.17948, 250.251666)"><g><path d="M 0.3125 0 L 0.3125 -0.5 C 0.3125 -0.601562 0.363281 -0.664062 0.46875 -0.6875 L 0.96875 -0.84375 L 4.1875 -8.8125 L 5.390625 -8.8125 L 8.5625 -0.828125 L 9.0625 -0.671875 C 9.164062 -0.648438 9.21875 -0.585938 9.21875 -0.484375 L 9.21875 0.015625 L 6.6875 0.015625 L 6.6875 -0.484375 C 6.6875 -0.585938 6.742188 -0.648438 6.859375 -0.671875 L 7.359375 -0.828125 L 6.671875 -2.59375 L 2.859375 -2.609375 L 2.171875 -0.84375 L 2.671875 -0.6875 C 2.773438 -0.664062 2.828125 -0.601562 2.828125 -0.5 L 2.828125 0 Z M 3.1875 -3.484375 L 6.34375 -3.46875 L 5.046875 -6.859375 C 4.941406 -7.085938 4.851562 -7.363281 4.78125 -7.6875 C 4.675781 -7.3125 4.59375 -7.035156 4.53125 -6.859375 Z M 3.1875 -3.484375 "/></g></g></g><g fill="#ffffff" fill-opacity="1"><g transform="translate(192.845776, 250.036244)"><g/></g></g><g fill="#ffffff" fill-opacity="1"><g transform="translate(196.499634, 249.644552)"><g><path d="M 0.421875 -0.0625 L 0.328125 -0.59375 C 0.304688 -0.71875 0.347656 -0.800781 0.453125 -0.84375 L 1.15625 -1.109375 L 0 -8.046875 C -0.414062 -8.046875 -0.671875 -8.050781 -0.765625 -8.0625 C -0.859375 -8.070312 -0.914062 -8.140625 -0.9375 -8.265625 L -1.015625 -8.765625 L 1.90625 -9.25 L 1.984375 -8.75 C 2.003906 -8.613281 1.957031 -8.523438 1.84375 -8.484375 L 1.15625 -8.234375 L 2.3125 -1.296875 C 2.6875 -1.285156 2.941406 -1.273438 3.078125 -1.265625 C 3.179688 -1.253906 3.238281 -1.191406 3.25 -1.078125 L 3.34375 -0.546875 Z M 0.421875 -0.0625 "/></g></g></g><g fill="#ffffff" fill-opacity="1"><g transform="translate(201.40653, 248.932712)"><g><path d="M 0.40625 -0.09375 L 0.265625 -0.609375 C 0.234375 -0.722656 0.273438 -0.8125 0.390625 -0.875 L 1.015625 -1.21875 L -0.90625 -7.984375 C -1.320312 -7.929688 -1.554688 -7.910156 -1.609375 -7.921875 C -1.742188 -7.898438 -1.828125 -7.957031 -1.859375 -8.09375 L -2.015625 -8.59375 L -0.578125 -9.015625 C -0.472656 -9.035156 -0.390625 -9.046875 -0.328125 -9.046875 C -0.285156 -9.046875 -0.210938 -9.007812 -0.109375 -8.9375 L 6.640625 -3.9375 L 6.640625 -3.921875 C 6.585938 -4.023438 6.519531 -4.21875 6.4375 -4.5 L 4.96875 -9.65625 C 4.832031 -9.632812 4.703125 -9.613281 4.578125 -9.59375 C 4.453125 -9.582031 4.351562 -9.570312 4.28125 -9.5625 C 4.207031 -9.5625 4.164062 -9.5625 4.15625 -9.5625 C 4.007812 -9.550781 3.921875 -9.601562 3.890625 -9.71875 L 3.734375 -10.234375 L 4.71875 -10.515625 L 5.71875 -10.796875 L 6.578125 -11.046875 L 6.734375 -10.53125 C 6.765625 -10.40625 6.726562 -10.316406 6.625 -10.265625 L 5.96875 -9.9375 L 8.140625 -2.296875 L 7.578125 -2.140625 C 7.398438 -2.085938 7.242188 -2.125 7.109375 -2.25 L 0.359375 -7.234375 C 0.421875 -7.097656 0.484375 -6.914062 0.546875 -6.6875 L 2.015625 -1.5 C 2.265625 -1.53125 2.539062 -1.554688 2.84375 -1.578125 C 2.976562 -1.585938 3.0625 -1.535156 3.09375 -1.421875 L 3.234375 -0.90625 Z M 0.40625 -0.09375 "/></g></g></g><g fill="#ffffff" fill-opacity="1"><g transform="translate(211.844405, 245.84053)"><g><path d="M 0.390625 -0.171875 L 0.171875 -0.640625 C 0.117188 -0.765625 0.140625 -0.863281 0.234375 -0.9375 L 0.8125 -1.359375 L -2.125 -7.75 C -2.5 -7.65625 -2.734375 -7.601562 -2.828125 -7.59375 C -2.941406 -7.550781 -3.023438 -7.59375 -3.078125 -7.71875 L -3.296875 -8.1875 L 0.40625 -9.890625 C 1.601562 -10.453125 2.71875 -10.53125 3.75 -10.125 C 4.820312 -9.71875 5.632812 -8.910156 6.1875 -7.703125 C 6.457031 -7.109375 6.617188 -6.515625 6.671875 -5.921875 C 6.691406 -5.359375 6.613281 -4.816406 6.4375 -4.296875 C 6.050781 -3.234375 5.269531 -2.425781 4.09375 -1.875 Z M 1.875 -1.921875 L 3.6875 -2.75 C 4.550781 -3.15625 5.113281 -3.753906 5.375 -4.546875 C 5.632812 -5.328125 5.535156 -6.207031 5.078125 -7.1875 C 4.835938 -7.695312 4.566406 -8.113281 4.265625 -8.4375 C 3.929688 -8.769531 3.59375 -9.007812 3.25 -9.15625 C 2.488281 -9.476562 1.671875 -9.4375 0.796875 -9.03125 L -1.015625 -8.203125 Z M 1.875 -1.921875 "/></g></g></g><g fill="#ffffff" fill-opacity="1"><g transform="translate(221.324809, 241.378223)"><g><path d="M 0.265625 -0.171875 L -0.015625 -0.59375 C -0.0664062 -0.675781 -0.0546875 -0.757812 0.015625 -0.84375 L 0.34375 -1.234375 L -1.390625 -9.671875 L -0.390625 -10.328125 L 6.671875 -5.4375 L 7.171875 -5.578125 C 7.273438 -5.617188 7.351562 -5.597656 7.40625 -5.515625 L 7.6875 -5.09375 L 5.578125 -3.703125 L 5.296875 -4.125 C 5.242188 -4.207031 5.257812 -4.289062 5.34375 -4.375 L 5.671875 -4.765625 L 4.125 -5.859375 L 0.953125 -3.75 L 1.34375 -1.90625 L 1.859375 -2.046875 C 1.953125 -2.085938 2.023438 -2.066406 2.078125 -1.984375 L 2.359375 -1.5625 Z M 0.734375 -4.671875 L 3.359375 -6.40625 L 0.390625 -8.515625 C 0.179688 -8.640625 -0.0390625 -8.820312 -0.28125 -9.0625 C -0.164062 -8.6875 -0.0820312 -8.410156 -0.03125 -8.234375 Z M 0.734375 -4.671875 "/></g></g></g><g fill="#ffffff" fill-opacity="1"><g transform="translate(230.315559, 235.299049)"><g><path d="M 0.296875 -0.28125 L -0.0625 -0.671875 C -0.15625 -0.773438 -0.160156 -0.875 -0.078125 -0.96875 L 0.34375 -1.546875 L -4.421875 -6.71875 C -4.765625 -6.5 -4.976562 -6.367188 -5.0625 -6.328125 C -5.15625 -6.285156 -5.242188 -6.3125 -5.328125 -6.40625 L -5.6875 -6.78125 L -3.5 -8.78125 L -3.140625 -8.40625 C -3.054688 -8.3125 -3.035156 -8.222656 -3.078125 -8.140625 C -3.128906 -8.066406 -3.28125 -7.863281 -3.53125 -7.53125 L -1.46875 -5.28125 L 2.03125 -8.515625 L -0.03125 -10.765625 C -0.375 -10.535156 -0.585938 -10.398438 -0.671875 -10.359375 C -0.765625 -10.316406 -0.851562 -10.34375 -0.9375 -10.4375 L -1.296875 -10.8125 L 0.90625 -12.84375 L 1.265625 -12.46875 C 1.359375 -12.363281 1.363281 -12.253906 1.28125 -12.140625 L 0.84375 -11.5625 L 5.609375 -6.390625 C 5.898438 -6.578125 6.117188 -6.707031 6.265625 -6.78125 C 6.347656 -6.832031 6.429688 -6.8125 6.515625 -6.71875 L 6.875 -6.328125 L 4.6875 -4.3125 L 4.328125 -4.703125 C 4.242188 -4.796875 4.238281 -4.894531 4.3125 -5 L 4.71875 -5.578125 L 2.609375 -7.859375 L -0.890625 -4.640625 L 1.21875 -2.359375 C 1.738281 -2.660156 2.039062 -2.765625 2.125 -2.671875 L 2.484375 -2.28125 Z M 0.296875 -0.28125 "/></g></g></g><g fill="#ffffff" fill-opacity="1"><g transform="translate(238.149513, 227.753037)"><g/></g></g><g fill="#ffffff" fill-opacity="1"><g transform="translate(240.866036, 224.968621)"><g><path d="M 0.234375 -0.34375 L -0.21875 -0.65625 C -0.320312 -0.726562 -0.34375 -0.820312 -0.28125 -0.9375 L -0.03125 -1.59375 L -5.828125 -5.546875 C -6.085938 -5.273438 -6.253906 -5.113281 -6.328125 -5.0625 C -6.421875 -4.96875 -6.519531 -4.957031 -6.625 -5.03125 L -7.0625 -5.328125 L -6.046875 -6.796875 C -5.984375 -6.898438 -5.9375 -6.960938 -5.90625 -6.984375 C -5.832031 -7.023438 -5.757812 -7.035156 -5.6875 -7.015625 L 0.546875 -6.46875 C 0.703125 -6.457031 0.929688 -6.410156 1.234375 -6.328125 C 1.117188 -6.472656 0.988281 -6.679688 0.84375 -6.953125 L -1.96875 -12.46875 C -1.988281 -12.539062 -2 -12.617188 -2 -12.703125 C -1.976562 -12.753906 -1.9375 -12.828125 -1.875 -12.921875 L -0.875 -14.390625 L -0.4375 -14.09375 C -0.332031 -14.019531 -0.304688 -13.925781 -0.359375 -13.8125 L -0.65625 -13.125 L 5.140625 -9.171875 C 5.421875 -9.441406 5.601562 -9.613281 5.6875 -9.6875 C 5.769531 -9.78125 5.863281 -9.789062 5.96875 -9.71875 L 6.421875 -9.40625 L 4.75 -6.96875 L 4.296875 -7.28125 C 4.191406 -7.351562 4.171875 -7.445312 4.234375 -7.5625 C 4.328125 -7.800781 4.4375 -8.050781 4.5625 -8.3125 L -0.046875 -11.46875 C -0.242188 -11.601562 -0.394531 -11.710938 -0.5 -11.796875 L 2.34375 -6.1875 C 2.445312 -6.007812 2.445312 -5.84375 2.34375 -5.6875 L 2.25 -5.546875 C 2.132812 -5.378906 1.972656 -5.3125 1.765625 -5.34375 L -4.5625 -5.90625 L -4.5625 -5.9375 C -4.363281 -5.820312 -4.191406 -5.71875 -4.046875 -5.625 L 0.5625 -2.46875 C 0.851562 -2.75 1.0625 -2.953125 1.1875 -3.078125 C 1.25 -3.160156 1.332031 -3.164062 1.4375 -3.09375 L 1.890625 -2.78125 Z M 0.234375 -0.34375 "/></g></g></g><g fill="#ffffff" fill-opacity="1"><g transform="translate(248.09236, 213.999261)"><g><path d="M 0.125 -0.28125 L -0.328125 -0.484375 C -0.421875 -0.523438 -0.457031 -0.597656 -0.4375 -0.703125 L -0.359375 -1.21875 L -6.328125 -7.4375 L -5.828125 -8.53125 L 2.765625 -8.140625 L 3.109375 -8.53125 C 3.179688 -8.613281 3.265625 -8.632812 3.359375 -8.59375 L 3.8125 -8.390625 L 2.765625 -6.09375 L 2.3125 -6.296875 C 2.21875 -6.335938 2.179688 -6.414062 2.203125 -6.53125 L 2.265625 -7.046875 L 0.375 -7.15625 L -1.1875 -3.6875 L 0.125 -2.328125 L 0.484375 -2.71875 C 0.546875 -2.800781 0.625 -2.820312 0.71875 -2.78125 L 1.171875 -2.578125 Z M -1.859375 -4.34375 L -0.546875 -7.21875 L -4.1875 -7.421875 C -4.4375 -7.421875 -4.722656 -7.453125 -5.046875 -7.515625 C -4.742188 -7.273438 -4.53125 -7.085938 -4.40625 -6.953125 Z M -1.859375 -4.34375 "/></g></g></g><g fill="#ffffff" fill-opacity="1"><g transform="translate(252.458716, 204.08052)"><g><path d="M 0.109375 -0.40625 L -0.390625 -0.546875 C -0.515625 -0.578125 -0.570312 -0.660156 -0.5625 -0.796875 L -0.5 -1.5 L -7.265625 -3.390625 C -7.441406 -3.035156 -7.5625 -2.828125 -7.625 -2.765625 C -7.675781 -2.640625 -7.769531 -2.597656 -7.90625 -2.640625 L -8.390625 -2.78125 L -7.296875 -6.703125 C -6.941406 -7.984375 -6.273438 -8.882812 -5.296875 -9.40625 C -4.296875 -9.957031 -3.15625 -10.054688 -1.875 -9.703125 C -1.238281 -9.523438 -0.6875 -9.265625 -0.21875 -8.921875 C 0.226562 -8.578125 0.597656 -8.164062 0.890625 -7.6875 C 1.453125 -6.707031 1.554688 -5.585938 1.203125 -4.328125 Z M -0.265625 -2.6875 L 0.265625 -4.59375 C 0.523438 -5.519531 0.4375 -6.332031 0 -7.03125 C -0.414062 -7.738281 -1.148438 -8.238281 -2.203125 -8.53125 C -2.742188 -8.675781 -3.234375 -8.734375 -3.671875 -8.703125 C -4.140625 -8.660156 -4.546875 -8.554688 -4.890625 -8.390625 C -5.628906 -8.023438 -6.128906 -7.375 -6.390625 -6.4375 L -6.921875 -4.53125 Z M -0.265625 -2.6875 "/></g></g></g><g fill="#ffffff" fill-opacity="1"><g transform="translate(255.171657, 193.967951)"><g><path d="M -8.21875 -1.203125 L -8.734375 -1.25 L -8.375 -4.328125 L -7.859375 -4.28125 C -7.722656 -4.257812 -7.648438 -4.1875 -7.640625 -4.0625 C -7.628906 -3.882812 -7.613281 -3.609375 -7.59375 -3.234375 L -3.171875 -2.703125 C -2.398438 -2.609375 -1.773438 -2.738281 -1.296875 -3.09375 C -0.785156 -3.4375 -0.484375 -3.96875 -0.390625 -4.6875 C -0.304688 -5.414062 -0.472656 -6.019531 -0.890625 -6.5 C -1.285156 -6.957031 -1.859375 -7.234375 -2.609375 -7.328125 L -7.046875 -7.859375 C -7.160156 -7.453125 -7.238281 -7.1875 -7.28125 -7.0625 C -7.320312 -6.925781 -7.410156 -6.867188 -7.546875 -6.890625 L -8.0625 -6.9375 L -7.9375 -7.953125 L -7.796875 -9.125 L -7.6875 -10 L -7.15625 -9.9375 C -7.03125 -9.925781 -6.960938 -9.859375 -6.953125 -9.734375 L -6.890625 -9.015625 L -2.453125 -8.46875 C -1.453125 -8.351562 -0.65625 -7.945312 -0.0625 -7.25 C 0.550781 -6.53125 0.789062 -5.632812 0.65625 -4.5625 C 0.53125 -3.5 0.0859375 -2.691406 -0.671875 -2.140625 C -1.421875 -1.585938 -2.296875 -1.367188 -3.296875 -1.484375 L -7.734375 -2.03125 C -7.847656 -1.65625 -7.925781 -1.429688 -7.96875 -1.359375 C -8 -1.234375 -8.082031 -1.179688 -8.21875 -1.203125 Z M -8.21875 -1.203125 "/></g></g></g><g fill="#ffffff" fill-opacity="1"><g transform="translate(256.302236, 183.513976)"><g><path d="M -0.03125 -0.40625 L -0.5625 -0.390625 C -0.675781 -0.390625 -0.75 -0.453125 -0.78125 -0.578125 L -0.953125 -1.296875 L -7.96875 -1.109375 C -8.039062 -0.703125 -8.082031 -0.460938 -8.09375 -0.390625 C -8.125 -0.265625 -8.203125 -0.203125 -8.328125 -0.203125 L -8.859375 -0.1875 L -8.875 -1.078125 L -8.9375 -3.453125 C -8.945312 -3.992188 -8.90625 -4.476562 -8.8125 -4.90625 C -8.707031 -5.3125 -8.550781 -5.65625 -8.34375 -5.9375 C -8.125 -6.207031 -7.867188 -6.410156 -7.578125 -6.546875 C -7.273438 -6.679688 -6.9375 -6.753906 -6.5625 -6.765625 C -6.269531 -6.765625 -5.984375 -6.71875 -5.703125 -6.625 C -5.429688 -6.539062 -5.175781 -6.40625 -4.9375 -6.21875 C -4.707031 -6.039062 -4.515625 -5.816406 -4.359375 -5.546875 C -4.179688 -5.242188 -4.0625 -4.945312 -4 -4.65625 C -3.90625 -4.8125 -3.78125 -4.941406 -3.625 -5.046875 L -1.0625 -7.03125 C -1 -7.457031 -0.960938 -7.6875 -0.953125 -7.71875 C -0.929688 -7.84375 -0.863281 -7.90625 -0.75 -7.90625 L -0.203125 -7.921875 L -0.1875 -7.6875 L -0.171875 -7.03125 L -0.171875 -6.640625 C -0.160156 -6.421875 -0.242188 -6.265625 -0.421875 -6.171875 L -3.5 -3.796875 C -3.59375 -3.722656 -3.664062 -3.640625 -3.71875 -3.546875 C -3.769531 -3.484375 -3.789062 -3.363281 -3.78125 -3.1875 L -3.765625 -2.390625 L -0.984375 -2.46875 C -0.898438 -2.863281 -0.851562 -3.09375 -0.84375 -3.15625 C -0.832031 -3.21875 -0.804688 -3.265625 -0.765625 -3.296875 C -0.722656 -3.335938 -0.675781 -3.359375 -0.625 -3.359375 L -0.09375 -3.375 L -0.078125 -2.484375 L -0.046875 -1.296875 Z M -4.625 -2.375 L -4.65625 -3.5 L -4.65625 -3.484375 C -4.664062 -3.847656 -4.710938 -4.15625 -4.796875 -4.40625 C -4.878906 -4.644531 -5.007812 -4.863281 -5.1875 -5.0625 C -5.351562 -5.238281 -5.535156 -5.367188 -5.734375 -5.453125 C -5.941406 -5.535156 -6.179688 -5.578125 -6.453125 -5.578125 C -6.960938 -5.566406 -7.351562 -5.382812 -7.625 -5.03125 C -7.882812 -4.675781 -8.003906 -4.15625 -7.984375 -3.46875 L -7.953125 -2.28125 Z M -4.625 -2.375 "/></g></g></g><g fill="#ffffff" fill-opacity="1"><g transform="translate(256.010852, 173.968697)"><g><path d="M -0.046875 -0.3125 L -0.546875 -0.234375 C -0.640625 -0.210938 -0.707031 -0.25 -0.75 -0.34375 L -1 -0.8125 L -9.421875 -2.59375 L -9.625 -3.78125 L -2.296875 -8.296875 L -2.21875 -8.796875 C -2.21875 -8.910156 -2.171875 -8.976562 -2.078125 -9 L -1.578125 -9.078125 L -1.140625 -6.59375 L -1.640625 -6.515625 C -1.734375 -6.492188 -1.800781 -6.53125 -1.84375 -6.625 L -2.09375 -7.109375 L -3.71875 -6.125 L -3.0625 -2.359375 L -1.203125 -2 L -1.125 -2.5 C -1.125 -2.613281 -1.078125 -2.679688 -0.984375 -2.703125 L -0.484375 -2.78125 Z M -3.984375 -2.546875 L -4.53125 -5.65625 L -7.625 -3.78125 C -7.832031 -3.632812 -8.09375 -3.492188 -8.40625 -3.359375 C -8.019531 -3.335938 -7.734375 -3.3125 -7.546875 -3.28125 Z M -3.984375 -2.546875 "/></g></g></g></svg>